<svg xmlns="http://www.w3.org/2000/svg" xmlns:xlink="http://www.w3.org/1999/xlink" viewBox="0 0 500 500"><defs><clipPath id="freepik--clip-path--inject-1--inject-99"><path d="M317.16,321a30.85,30.85,0,0,1-1.29,9.44c-1.47,4.53-6.26,10.77-2,13.57s9.72-6.11,11.14-13.59S327.46,314,327.46,314Z" style="fill:#fff;stroke:#263238;stroke-miterlimit:10"></path></clipPath><clipPath id="freepik--clip-path-2--inject-1--inject-99"><path d="M310.87,292s-3.6,15-3.6,20.59,5.14,12.43,11.66,13c8.32.67,11.38-10.51,13.18-16.88,1.56-5.53,2.62-10.31,2.88-11.49C322.34,302,310.87,292,310.87,292Z" style="fill:#fff;stroke:#263238;stroke-miterlimit:10"></path></clipPath><clipPath id="freepik--clip-path-3--inject-1--inject-99"><path d="M165.29,311.15s4.06,14.63,5.08,19.71,5.69,12.4,9.14,10,3.26-6.91,1.22-10.77a47.5,47.5,0,0,1-3.25-8.33Z" style="fill:#fff;stroke:#263238;stroke-miterlimit:10"></path></clipPath><clipPath id="freepik--clip-path-4--inject-1--inject-99"><path d="M189.88,299.36c-.76-4.37-2.77-11.42-1.86-13.47-.61-1.47-2.71-4.9-8.91-5.22-7.93-.41-16.46,4.06-18.09,8.33s2.24,2,3.66,5.08-2.24,6.71-1.42,8.94,4.67,11,4.67,11c.61-2.44,9.76-6.51,9.76-6.51a13,13,0,0,0,4.06.41c1.83-.2.81-1.83.81-1.83l9.37.56C191.13,303.7,190.18,301.13,189.88,299.36Z" style="fill:#fff;stroke:#263238;stroke-miterlimit:10"></path></clipPath><clipPath id="freepik--clip-path-5--inject-1--inject-99"><path d="M316.19,196.49s1.22,2.24-.2,7.52-5,14-3.34,15.66,11.67-5.9,12.07-11.59.41-17.07.41-17.07Z" style="fill:#fff;stroke:#263238;stroke-miterlimit:10"></path></clipPath><clipPath id="freepik--clip-path-6--inject-1--inject-99"><path d="M310.7,159.71s-5.89,11.58-7.31,19.51,4.47,19.91,10.36,19.91,15-9.14,15-9.14,8.53.2,9.75-2.64-.2-5.08-2.44-5.08h-4.47s-1.22.61-.61-5.08,2.44-8.33,2.44-8.33S318,170.07,310.7,159.71Z" style="fill:#fff;stroke:#263238;stroke-miterlimit:10"></path></clipPath><clipPath id="freepik--clip-path-7--inject-1--inject-99"><path d="M177.45,188.21s0,7.33-.78,14.13.26,14.12,5.23,14.64,4.18-11.24,3.66-15.95a42.8,42.8,0,0,1,0-8.89Z" style="fill:#fff;stroke:#263238;stroke-miterlimit:10"></path></clipPath><clipPath id="freepik--clip-path-8--inject-1--inject-99"><path d="M195.24,155.52s.52,3.4-8.37,7.59-13.34,7.58-14.12,11.5-1.05,5.5-1.05,5.5-1.83-3.67-5.23-1.84-.26,8.9,2.88,9.16,3.92-.79,3.92-.79,10.2,10.2,16.21,10.2,8.37-5.75,9.68-16C200.43,171,195.24,155.52,195.24,155.52Z" style="fill:#fff;stroke:#263238;stroke-miterlimit:10"></path></clipPath></defs><!--Social Media--><g id="freepik--background-simple--inject-1--inject-99"><path d="M194,97s-26-14-48,8,6,37,14,66-52,13-74,35-2.07,53,13,57.5,45-7.5,49,15.5c0,0,7,10-12,39s-18,60,17,67,43-40,69-33,19,62,69,54,24.78-45.51,39.89-62.26S366,349,388,332s-13-54-10-79,27-27,29-48-13-18-46-46-17-48-40-61-44,26-74,18A339,339,0,0,1,194,97Z" style="fill:#475569"></path><path d="M194,97s-26-14-48,8,6,37,14,66-52,13-74,35-2.07,53,13,57.5,45-7.5,49,15.5c0,0,7,10-12,39s-18,60,17,67,43-40,69-33,19,62,69,54,24.78-45.51,39.89-62.26S366,349,388,332s-13-54-10-79,27-27,29-48-13-18-46-46-17-48-40-61-44,26-74,18A339,339,0,0,1,194,97Z" style="fill:#fff;opacity:0.8"></path></g><g id="freepik--Paths--inject-1--inject-99"><path d="M224.79,326.15c34.85-11.38,57.21-20,82.66-20.3,0,0,36.25,4.67,51.25,0,43.86-13.68,47.68-63.5,24-100.28-24.52-38.09-68.65-27.22-68.65-27.22-52.82,9.7-88.06-1-106.49-9.91-14.77-7.12-32.62-4.47-44,7.31a26,26,0,0,0-5.89,8.95c-16.21,44.39,2.46,87.77,9.12,114.26C169.25,308.78,189.93,337.53,224.79,326.15Z" style="fill:none;stroke:#263238;stroke-linecap:round;stroke-linejoin:round;stroke-dasharray:2"></path><path d="M240.93,142.52c-1.41,16.62-2.89,33.47-2.52,50.08.87,40.24,4.91,80.35,7.47,120.5,1.53,23.93,6.26,49.22,1.44,73-4.51,22.29-22.26,40.69-45.51,42.34-25.59,1.82-44.08-22.07-41.29-46.1,2.09-18,12.91-34.63,13.55-52.77.85-24.42-27.69-21.27-46.24-37C106,274.09,84.45,249.52,78.11,220.88c-1.83-8.23-2.3-17,.75-24.91,13.81-35.72,72.43-44.69,95.21-14.33,23.47,31.3,14.22,76.82,52.63,81.09s76.11-12.09,113.1-21.34,78.24,13.52,71.84,61.88-66.15,47-93.89,13.52S302.81,215.07,308.5,188c3.13-14.84,11.17-28.16,18.22-41.4,5.55-10.44,12.55-21.34,10.75-33.67-5.31-36.35-66-46.63-84.45-15.26C253,97.71,243.63,110.6,240.93,142.52Z" style="fill:none;stroke:#263238;stroke-linecap:round;stroke-linejoin:round;stroke-dasharray:1.999709963798523,1.999709963798523"></path></g><g id="freepik--character-4--inject-1--inject-99"><circle cx="322.19" cy="315.03" r="41.93" style="fill:#475569;stroke:#263238;stroke-miterlimit:10"></circle><circle cx="322.19" cy="315.03" r="41.93" style="fill:#fff;stroke:#263238;stroke-miterlimit:10;opacity:0.30000000000000004"></circle><path d="M322.19,273.1s-21.21-2.3-24.59,8.19,10.88,8.63,8.63,13.5S294.6,306,298.35,313.16s10.5,15,3,12.38-9.37-3.38-7.87,4.87,9.37,10.5,22.12,9.37,11.62,4.88,18.74,5.63,14.25-3.38,14.25-13.88-8.62-8.24-.75-13.49,6.38-18.75,4.13-22.87-6.75-2.25-6.75-7.5S334.4,272.4,322.19,273.1Z" style="fill:#263238;stroke:#263238;stroke-miterlimit:10"></path><path d="M310.52,278s-7.85-1.05-7.59,3.92,13.88,14.66,26.71,14.93,14.13-6.29,12.3-7.6" style="fill:none;stroke:#fff;stroke-linecap:round;stroke-linejoin:round;stroke-width:0.75px"></path><path d="M318.64,282.16s-6.28.78-5.5,5,4.71,6.28,10.74,8.64" style="fill:none;stroke:#fff;stroke-linecap:round;stroke-linejoin:round;stroke-width:0.75px"></path><path d="M350.05,307.81s-.52,6.55-8.63,10.74S326,329,333,332.16s11,6.8,8.38,7.59" style="fill:none;stroke:#fff;stroke-linecap:round;stroke-linejoin:round;stroke-width:0.75px"></path><path d="M310,327.18s-3.14,7.33-7.85,6-6.29-5-3.14-5,3.4,1.57,3.4,1.57" style="fill:none;stroke:#fff;stroke-linecap:round;stroke-linejoin:round;stroke-width:0.75px"></path><path d="M335,297.18s6.43-.1,5.38,6.18-7.07,6.81-8.64,11.52" style="fill:none;stroke:#fff;stroke-linecap:round;stroke-linejoin:round;stroke-width:0.75px"></path><path d="M322.19,357a41.71,41.71,0,0,0,25.93-9c-2.94-2.17-8.18-6-11.23-8-4.41-2.94-10.29-12.09-18.14-10.46-6.3,1.32-23.16,8.58-29.58,11.4A41.88,41.88,0,0,0,322.19,357Z" style="fill:#fff;stroke:#263238;stroke-miterlimit:10"></path><path d="M317.47,328.16s-11.62,3.37-13.12,13.12,9.56,2.72,9.56,2.72,5.81,8.53,11.06,5.91,6-11.63,3-17.63S317.47,328.16,317.47,328.16Z" style="fill:#fff;stroke:#263238;stroke-miterlimit:10"></path><path d="M317.16,321a30.85,30.85,0,0,1-1.29,9.44c-1.47,4.53-6.26,10.77-2,13.57s9.72-6.11,11.14-13.59S327.46,314,327.46,314Z" style="fill:#fff"></path><g style="clip-path:url(#freepik--clip-path--inject-1--inject-99)"><path d="M316.17,329.44a18.81,18.81,0,0,0,4.25,1c1.3.15,1.82-.13,2-.46-.16,1.87-.77,7-2.9,10.78-.65,1.16-1.18,2.14-1.6,3,3.16-2.13,6.11-8.07,7.11-13.31,1.42-7.47,2.41-16.39,2.41-16.39l-10.3,7A31.86,31.86,0,0,1,316.17,329.44Z" style="fill:#475569;opacity:0.5;mix-blend-mode:multiply"></path></g><path d="M317.16,321a30.85,30.85,0,0,1-1.29,9.44c-1.47,4.53-6.26,10.77-2,13.57s9.72-6.11,11.14-13.59S327.46,314,327.46,314Z" style="fill:none;stroke:#263238;stroke-miterlimit:10"></path><path d="M310.87,292s-3.6,15-3.6,20.59,5.14,12.43,11.66,13c8.32.67,11.38-10.51,13.18-16.88,1.56-5.53,2.62-10.31,2.88-11.49C322.34,302,310.87,292,310.87,292Z" style="fill:#fff"></path><g style="clip-path:url(#freepik--clip-path-2--inject-1--inject-99)"><path d="M335,297.18a19.93,19.93,0,0,1-3.89,1.05c-.59,3.81-2.4,13.18-6.55,18.94-3.52,4.89-7.29,6.66-9.43,7.3a10.69,10.69,0,0,0,3.81,1.08c8.32.67,11.38-10.51,13.18-16.88" style="fill:#475569;opacity:0.5;mix-blend-mode:multiply"></path></g><path d="M310.87,292s-3.6,15-3.6,20.59,5.14,12.43,11.66,13c8.32.67,11.38-10.51,13.18-16.88,1.56-5.53,2.62-10.31,2.88-11.49C322.34,302,310.87,292,310.87,292Z" style="fill:none;stroke:#263238;stroke-miterlimit:10"></path><path d="M317.73,302.62a15.68,15.68,0,0,1-2.13,4.58c-1.3,1.63-4.08.16-3.26,1.14a5.3,5.3,0,0,0,3.75,2" style="fill:none;stroke:#263238;stroke-linecap:round;stroke-linejoin:round"></path><path d="M311.44,313.44s2.45,3.6,7.51,1.8" style="fill:none;stroke:#263238;stroke-linecap:round;stroke-linejoin:round"></path><path d="M315.35,301.46c-.15.89-.67,1.55-1.16,1.46s-.77-.87-.62-1.76.67-1.54,1.16-1.46S315.5,300.57,315.35,301.46Z" style="fill:#263238"></path><path d="M323.59,303.81c-.22.88-.78,1.5-1.26,1.38s-.7-.92-.49-1.8.77-1.49,1.26-1.38S323.8,302.94,323.59,303.81Z" style="fill:#263238"></path><path d="M312,297.06s1.31-3.1,5.23-1.3" style="fill:none;stroke:#263238;stroke-linecap:round;stroke-linejoin:round"></path><path d="M321.79,298.39s3.6-1.14,4.58,2.45" style="fill:none;stroke:#263238;stroke-linecap:round;stroke-linejoin:round"></path></g><g id="freepik--character-3--inject-1--inject-99"><circle cx="176.23" cy="315.03" r="41.93" style="fill:#475569;stroke:#263238;stroke-miterlimit:10"></circle><circle cx="176.23" cy="315.03" r="41.93" style="fill:#fff;stroke:#263238;stroke-miterlimit:10;opacity:0.30000000000000004"></circle><path d="M150,347.7a41.89,41.89,0,0,0,56.81-3.94c-4.72-6.08-14.39-16.5-25.15-16.5C169.72,327.26,155.54,341.51,150,347.7Z" style="fill:#fff;stroke:#263238;stroke-miterlimit:10"></path><path d="M171.59,324.16s-7.11.81-7.72,6.3,3.65,14.63,4.06,15.64,9.55-8.12,13-8.12,12.39,4.87,12.39,4.87-2.84-11.38-7.92-15.65S173,322.53,171.59,324.16Z" style="fill:#fff;stroke:#263238;stroke-miterlimit:10"></path><path d="M162.24,304s-3.05-3.05-4.67-.61-.21,5.28,2,7.11,5.69,2,5.69.61S162.24,304,162.24,304Z" style="fill:#475569;stroke:#263238;stroke-miterlimit:10;opacity:0.5"></path><path d="M162.24,304s-3.05-3.05-4.67-.61-.21,5.28,2,7.11,5.69,2,5.69.61S162.24,304,162.24,304Z" style="fill:none;stroke:#263238;stroke-miterlimit:10"></path><path d="M188.46,296.93s1.42-3.66,3.45.2-1.83,7.31-1.83,7.31Z" style="fill:#fff;stroke:#263238;stroke-miterlimit:10"></path><path d="M165.29,311.15s4.06,14.63,5.08,19.71,5.69,12.4,9.14,10,3.26-6.91,1.22-10.77a47.5,47.5,0,0,1-3.25-8.33Z" style="fill:#fff"></path><g style="clip-path:url(#freepik--clip-path-3--inject-1--inject-99)"><path d="M180.73,330.05a47.5,47.5,0,0,1-3.25-8.33l-12.19-10.57s3.33,12,4.71,18a17.92,17.92,0,0,0,5.91,3.05,7.48,7.48,0,0,0,5.52-.63A13.26,13.26,0,0,0,180.73,330.05Z" style="fill:#475569;opacity:0.5;mix-blend-mode:multiply"></path></g><path d="M165.29,311.15s4.06,14.63,5.08,19.71,5.69,12.4,9.14,10,3.26-6.91,1.22-10.77a47.5,47.5,0,0,1-3.25-8.33Z" style="fill:none;stroke:#263238;stroke-miterlimit:10"></path><path d="M158,295.91s9.55,23,13.62,28.25,15,5.69,19.71-2-.61-18.08-1.42-22.76-3-12.39-1.63-13.81,7.11-2.44,4.88-6.1-5.49-1.83-5.89-4.47,1.62-9.15-5.9-10.16-20.73,7.92-26,14.83S148.42,292.86,158,295.91Z" style="fill:#263238;stroke:#263238;stroke-miterlimit:10"></path><path d="M161,289s-6.26-.47-3.12-6.49,24.09-14.13,24.35-9.68-4.45,5.76-4.45,5.76" style="fill:none;stroke:#fff;stroke-linecap:round;stroke-linejoin:round;stroke-width:0.75px"></path><path d="M169.42,283.3s-4.71-1.05-3.14-4.45,13.09-5,11-2.88a18.32,18.32,0,0,1-4.19,3.14" style="fill:none;stroke:#fff;stroke-linecap:round;stroke-linejoin:round;stroke-width:0.75px"></path><path d="M184.59,309.73s-3.45,5.48-8.94,2.84" style="fill:none;stroke:#fff;stroke-linecap:round;stroke-linejoin:round;stroke-width:0.75px"></path><path d="M189.88,299.36c-.76-4.37-2.77-11.42-1.86-13.47-.61-1.47-2.71-4.9-8.91-5.22-7.93-.41-16.46,4.06-18.09,8.33s2.24,2,3.66,5.08-2.24,6.71-1.42,8.94,4.67,11,4.67,11c.61-2.44,9.76-6.51,9.76-6.51a13,13,0,0,0,4.06.41c1.83-.2.81-1.83.81-1.83l9.37.56C191.13,303.7,190.18,301.13,189.88,299.36Z" style="fill:#fff"></path><g style="clip-path:url(#freepik--clip-path-4--inject-1--inject-99)"><path d="M168.24,290.63c-.38-4-3-4.79-4.74-4.86A8.61,8.61,0,0,0,161,289c-1.62,4.27,2.24,2,3.66,5.08s-2.24,6.71-1.42,8.94,4.67,11,4.67,11c.2-.78,1.26-1.73,2.62-2.65-2-2.85-4.44-6.32-5.82-8.33C162.11,299.19,168.83,296.83,168.24,290.63Z" style="fill:#475569;opacity:0.5;mix-blend-mode:multiply"></path></g><path d="M189.88,299.36c-.76-4.37-2.77-11.42-1.86-13.47-.61-1.47-2.71-4.9-8.91-5.22-7.93-.41-16.46,4.06-18.09,8.33s2.24,2,3.66,5.08-2.24,6.71-1.42,8.94,4.67,11,4.67,11c.61-2.44,9.76-6.51,9.76-6.51a13,13,0,0,0,4.06.41c1.83-.2.81-1.83.81-1.83l9.37.56C191.13,303.7,190.18,301.13,189.88,299.36Z" style="fill:none;stroke:#263238;stroke-miterlimit:10"></path><path d="M172.66,298.38c.26,1.13,0,2.16-.51,2.28s-1.19-.7-1.44-1.84,0-2.16.51-2.28S172.41,297.24,172.66,298.38Z" style="fill:#263238"></path><path d="M184.76,295.89c.26,1.14,0,2.16-.51,2.28s-1.19-.7-1.45-1.84,0-2.16.52-2.28S184.5,294.75,184.76,295.89Z" style="fill:#263238"></path><path d="M167.93,293.06s.81-4.47,5.49-2.64" style="fill:none;stroke:#263238;stroke-linecap:round;stroke-linejoin:round"></path><path d="M186,288.39c-3.46-2.24-4.68,1-4.68,1s-2.19,2.4-1.3,6.83" style="fill:none;stroke:#263238;stroke-linecap:round;stroke-linejoin:round"></path><line x1="168.54" y1="305.05" x2="174.43" y2="302.62" style="fill:none;stroke:#263238;stroke-linecap:round;stroke-linejoin:round;stroke-width:0.5px"></line><line x1="182.77" y1="300.79" x2="187.64" y2="300.38" style="fill:none;stroke:#263238;stroke-linecap:round;stroke-linejoin:round;stroke-width:0.5px"></line></g><g id="freepik--character-2--inject-1--inject-99"><circle cx="322.19" cy="184.47" r="41.93" transform="translate(-34.22 80.49) rotate(-13.53)" style="fill:#475569;stroke:#263238;stroke-miterlimit:10"></circle><circle cx="322.19" cy="184.47" r="41.93" transform="translate(-34.22 80.49) rotate(-13.53)" style="fill:#fff;stroke:#263238;stroke-miterlimit:10;opacity:0.30000000000000004"></circle><ellipse cx="329.28" cy="165.45" rx="29.41" ry="30.62" transform="translate(59.66 416.66) rotate(-69.65)" style="fill:#263238;stroke:#263238;stroke-miterlimit:10"></ellipse><path d="M357.78,159.64a26.42,26.42,0,0,1-.26,15.11" style="fill:none;stroke:#fff;stroke-linecap:round;stroke-linejoin:round;stroke-width:0.75px"></path><path d="M355.66,178.72s-1.86,2.39-2.92,3.72" style="fill:none;stroke:#fff;stroke-linecap:round;stroke-linejoin:round;stroke-width:0.75px"></path><path d="M312.18,146.91s-4.24,5-1.59,11.14" style="fill:none;stroke:#fff;stroke-linecap:round;stroke-linejoin:round;stroke-width:0.75px"></path><path d="M322.19,226.4a41.71,41.71,0,0,0,21.89-6.16c-4.89-4.51-17.62-15.74-23.62-16.23-6.28-.51-24.61,5.36-30.48,7.31A41.85,41.85,0,0,0,322.19,226.4Z" style="fill:#fff;stroke:#263238;stroke-miterlimit:10"></path><path d="M328.38,209.3c.17-.5.32-1,.48-1.41-3.22-2.14-6.25-3.7-8.4-3.88a31.37,31.37,0,0,0-7.75.89c-1.11,3-1.4,6-2.3,11.11-1.22,6.91.61,8.94,5.69,6.3S326.35,215.39,328.38,209.3Z" style="fill:#fff;stroke:#263238;stroke-miterlimit:10"></path><path d="M316.19,196.49s1.22,2.24-.2,7.52-5,14-3.34,15.66,11.67-5.9,12.07-11.59.41-17.07.41-17.07Z" style="fill:#fff"></path><g style="clip-path:url(#freepik--clip-path-5--inject-1--inject-99)"><path d="M316.66,199.91l6.42,5-.49,8a9.85,9.85,0,0,0,2.13-4.84c.41-5.69.41-17.07.41-17.07l-8.94,5.48A7.17,7.17,0,0,1,316.66,199.91Z" style="fill:#475569;opacity:0.5;mix-blend-mode:multiply"></path></g><path d="M316.19,196.49s1.22,2.24-.2,7.52-5,14-3.34,15.66,11.67-5.9,12.07-11.59.41-17.07.41-17.07Z" style="fill:none;stroke:#263238;stroke-miterlimit:10"></path><path d="M306,171.5s-1.42-3.66-3.25-1,.4,5.89,1.42,5.89S306,171.5,306,171.5Z" style="fill:#fff;stroke:#263238;stroke-miterlimit:10"></path><path d="M310.7,159.71s-5.89,11.58-7.31,19.51,4.47,19.91,10.36,19.91,15-9.14,15-9.14,8.53.2,9.75-2.64-.2-5.08-2.44-5.08h-4.47s-1.22.61-.61-5.08,2.44-8.33,2.44-8.33S318,170.07,310.7,159.71Z" style="fill:#fff"></path><g style="clip-path:url(#freepik--clip-path-6--inject-1--inject-99)"><path d="M326.32,186.32a19.46,19.46,0,0,1-15,12.09h-.06a5.21,5.21,0,0,0,2.53.71c5.89,0,15-9.14,15-9.14s8.53.2,9.75-2.64-.2-5.08-2.44-5.08h-4.47s-1.22.61-.61-5.08,2.44-8.33,2.44-8.33-1,.07-2.65,0l-.07,0" style="fill:#475569;opacity:0.5;mix-blend-mode:multiply"></path></g><path d="M310.7,159.71s-5.89,11.58-7.31,19.51,4.47,19.91,10.36,19.91,15-9.14,15-9.14,8.53.2,9.75-2.64-.2-5.08-2.44-5.08h-4.47s-1.22.61-.61-5.08,2.44-8.33,2.44-8.33S318,170.07,310.7,159.71Z" style="fill:none;stroke:#263238;stroke-miterlimit:10"></path><path d="M311.78,172.67c-.24,1.06-.74,1.85-1.11,1.77s-.47-1-.23-2.08.74-1.85,1.11-1.77S312,171.6,311.78,172.67Z" style="fill:#263238"></path><path d="M321.33,176.93c-.24,1.06-.74,1.86-1.11,1.77s-.47-1-.23-2.07.74-1.86,1.11-1.77S321.57,175.87,321.33,176.93Z" style="fill:#263238"></path><path d="M313.34,175.36s-4.47,3.25-3.86,4.06a11.32,11.32,0,0,0,5.9,2.64c1.83,0,1.42-2.23,1.42-2.23" style="fill:none;stroke:#263238;stroke-linecap:round;stroke-linejoin:round"></path><path d="M310.09,184.71a12.32,12.32,0,0,0,7.32,1.42,6.64,6.64,0,0,0,5.08-3.25" style="fill:none;stroke:#263238;stroke-linecap:round;stroke-linejoin:round"></path><path d="M310.5,167.84s1.22-2.64,3.66.41" style="fill:none;stroke:#263238;stroke-linecap:round;stroke-linejoin:round"></path><path d="M320.86,171.5s4.07-1.22,4.07,2.84" style="fill:none;stroke:#263238;stroke-linecap:round;stroke-linejoin:round"></path></g><g id="freepik--character-1--inject-1--inject-99"><circle cx="176.23" cy="184.47" r="41.93" transform="translate(-27.6 31.05) rotate(-9.34)" style="fill:#475569;stroke:#263238;stroke-miterlimit:10"></circle><circle cx="176.23" cy="184.47" r="41.93" transform="translate(-27.6 31.05) rotate(-9.34)" style="fill:#fff;stroke:#263238;stroke-miterlimit:10;opacity:0.30000000000000004"></circle><path d="M147.38,205.74c-.72,2.87-4,2.47-3,6a41.91,41.91,0,0,0,55.41,7.45c3-3.55,4.8-7.28,4.88-10.28.27-9.16-9.41-16-9.93-20.41s3.66-14.38,3.66-14.38,7.32-1.05,9.94-7.58S201,145.32,192.1,140.87s-23.8-.52-31.12,10.2,1.57,20.14-3.14,25.11-17,5.23-18.31,15.17S148.16,202.6,147.38,205.74Z" style="fill:#263238;stroke:#263238;stroke-miterlimit:10"></path><path d="M192.13,150.84s2.65,6.49-7.67,10.32-18.28,1.77-20.94,8.55-.59,11.51-.29,15-8,2.94-13,7.37,5,9.73,7.67,12.68,2.06,7.37-2.66,8.85" style="fill:none;stroke:#fff;stroke-linecap:round;stroke-linejoin:round;stroke-width:0.75px"></path><path d="M160.87,164.41s3.83-9.44,9.73-10.92,12.39,2.95,16.81-1.18,3.54-7.07.29-9.43" style="fill:none;stroke:#fff;stroke-linecap:round;stroke-linejoin:round;stroke-width:0.75px"></path><path d="M196.55,154.67s10.33,6.79,6.79,12.1-4.72-1.18-4.72-1.18" style="fill:none;stroke:#fff;stroke-linecap:round;stroke-linejoin:round;stroke-width:0.75px"></path><path d="M153.49,219.69a41.9,41.9,0,0,0,51.29-4.52,93.77,93.77,0,0,0-9.8-7.86c-6.54-4.45-11.77-6-15.43-5.76,0,0-2.88,1.31-8.37,6.54C167.6,211.5,159,216.57,153.49,219.69Z" style="fill:#fff;stroke:#263238;stroke-miterlimit:10"></path><path d="M189.22,208.74a18,18,0,0,0-.74-5.14,19,19,0,0,0-8.93-2s-2.29,1-6.66,5a18.16,18.16,0,0,0-.14,2.23c0,6.87,3.68,12.43,8.23,12.43S189.22,215.61,189.22,208.74Z" style="fill:#fff;stroke:#263238;stroke-miterlimit:10"></path><path d="M177.45,188.21s0,7.33-.78,14.13.26,14.12,5.23,14.64,4.18-11.24,3.66-15.95a42.8,42.8,0,0,1,0-8.89Z" style="fill:#fff"></path><g style="clip-path:url(#freepik--clip-path-7--inject-1--inject-99)"><path d="M176.52,203.92l8.83-8.56c0-.27,0-.53,0-.77l-1.8-3.35-6.13-3s0,7.33-.78,14.13C176.61,202.86,176.56,203.39,176.52,203.92Z" style="fill:#475569;opacity:0.5;mix-blend-mode:multiply"></path></g><path d="M177.45,188.21s0,7.33-.78,14.13.26,14.12,5.23,14.64,4.18-11.24,3.66-15.95a42.8,42.8,0,0,1,0-8.89Z" style="fill:none;stroke:#263238;stroke-miterlimit:10"></path><path d="M195.24,155.52s.52,3.4-8.37,7.59-13.34,7.58-14.12,11.5-1.05,5.5-1.05,5.5-1.83-3.67-5.23-1.84-.26,8.9,2.88,9.16,3.92-.79,3.92-.79,10.2,10.2,16.21,10.2,8.37-5.75,9.68-16C200.43,171,195.24,155.52,195.24,155.52Z" style="fill:#fff"></path><g style="clip-path:url(#freepik--clip-path-8--inject-1--inject-99)"><path d="M175.61,176.5a19,19,0,0,1,3.4-9.15c-3.73,2.44-5.76,4.74-6.26,7.26-.79,3.93-1.05,5.5-1.05,5.5s-1.83-3.67-5.23-1.84-.26,8.9,2.88,9.16,3.92-.79,3.92-.79,10.2,10.2,16.21,10.2a26.25,26.25,0,0,1-5-3.24C180.92,191,175.32,183,175.61,176.5Z" style="fill:#475569;opacity:0.5;mix-blend-mode:multiply"></path></g><path d="M195.24,155.52s.52,3.4-8.37,7.59-13.34,7.58-14.12,11.5-1.05,5.5-1.05,5.5-1.83-3.67-5.23-1.84-.26,8.9,2.88,9.16,3.92-.79,3.92-.79,10.2,10.2,16.21,10.2,8.37-5.75,9.68-16C200.43,171,195.24,155.52,195.24,155.52Z" style="fill:none;stroke:#263238;stroke-miterlimit:10"></path><path d="M193.43,171.39a6.16,6.16,0,0,0,.34,5c1.37,2.57,2.06,3.42,1.55,4.11a2.12,2.12,0,0,1-2.92.69" style="fill:none;stroke:#263238;stroke-linecap:round;stroke-linejoin:round"></path><path d="M192.4,187.34s-5,1.89-6.69-1.72" style="fill:none;stroke:#263238;stroke-linecap:round;stroke-linejoin:round"></path><path d="M187.43,175.25c0,1.09-.31,2-.69,2s-.68-.88-.68-2,.3-2,.68-2S187.43,174.16,187.43,175.25Z" style="fill:#263238"></path><ellipse cx="195.83" cy="173.02" rx="0.69" ry="1.97" style="fill:#263238"></ellipse><path d="M182.46,169.51s1-2.75,5.14-2.23" style="fill:none;stroke:#263238;stroke-linecap:round;stroke-linejoin:round"></path><path d="M193.6,166.76s1.2-2.91,3.77-.51" style="fill:none;stroke:#263238;stroke-linecap:round;stroke-linejoin:round"></path></g></svg>